<?xml version="1.0" encoding="utf-8"?>
<!-- Generator: Adobe Illustrator 23.0.6, SVG Export Plug-In . SVG Version: 6.00 Build 0)  -->
<svg version="1.1" id="Layer_1" xmlns="http://www.w3.org/2000/svg" xmlns:xlink="http://www.w3.org/1999/xlink" x="0px" y="0px"
	 viewBox="0 0 259.2 129.3" style="enable-background:new 0 0 259.2 129.3;" xml:space="preserve">
<style type="text/css">
	.st0{opacity:0.8;fill:#29ABE2;enable-background:new    ;}
	.st1{opacity:0.8;fill:#39B54A;enable-background:new    ;}
	.st2{opacity:0.8;fill:#FCEE21;enable-background:new    ;}
	.st3{opacity:0.8;fill:#F7931E;enable-background:new    ;}
	.st4{opacity:0.8;fill:#006837;enable-background:new    ;}
	.st5{opacity:0.8;fill:#FBB03B;enable-background:new    ;}
	.st6{opacity:0.8;fill:#00A99D;enable-background:new    ;}
	.st7{fill:none;}
</style>
<ellipse class="st0" cx="69.5" cy="1.1" rx="59.6" ry="17"/>
<ellipse class="st1" cx="129.1" cy="59.6" rx="17" ry="59.6"/>
<ellipse transform="matrix(0.866 -0.5 0.5 0.866 -4.736 88.2946)" class="st2" cx="162.4" cy="53" rx="17" ry="59.6"/>
<ellipse class="st3" cx="187.1" cy="1.1" rx="59.6" ry="17"/>
<ellipse transform="matrix(0.5 -0.866 0.866 0.5 2.5394 109.2125)" class="st4" cx="95.9" cy="52.4" rx="59.6" ry="17"/>
<ellipse transform="matrix(0.5 -0.866 0.866 0.5 61.058 172.7175)" class="st5" cx="180.1" cy="33.5" rx="17" ry="59.6"/>
<ellipse transform="matrix(0.866 -0.5 0.5 0.866 -5.5854 42.1248)" class="st6" cx="75.8" cy="31.5" rx="59.6" ry="17"/>
<rect id="_x3C_Slice_x3E_" y="-3.5" class="st7" width="259.2" height="132.7"/>
<rect x="404.4" y="151.1" class="st7" width="266.4" height="272.8"/>
<rect x="-186.8" y="136.7" class="st7" width="196.4" height="21.6"/>
</svg>
